<?xml version="1.0" encoding="UTF-8" standalone="no"?>
<!DOCTYPE svg PUBLIC "-//W3C//DTD SVG 1.1//EN" "http://www.w3.org/Graphics/SVG/1.1/DTD/svg11.dtd">
<svg width="100%" height="100%" viewBox="0 0 1660 700" version="1.1" xmlns="http://www.w3.org/2000/svg" xmlns:xlink="http://www.w3.org/1999/xlink" xml:space="preserve" xmlns:serif="http://www.serif.com/" style="fill-rule:evenodd;clip-rule:evenodd;stroke-linejoin:round;stroke-miterlimit:2;">
    <g transform="matrix(0.995881,0,0,0.995881,10.3899,3.09421)">
        <g transform="matrix(1.24334,0,0,1.24334,-520.218,294.599)">
            <path d="M508.114,-100.166C508.114,-100.166 557.406,-110.211 582.033,-110.211C594.549,-110.211 607.066,-105.158 619.569,-100.045C631.521,-95.158 643.458,-90.211 655.433,-90.211C679.787,-90.211 728.514,-100.166 728.514,-100.166C729.259,-100.318 730.03,-100.08 730.561,-99.536C731.091,-98.992 731.309,-98.215 731.138,-97.474L714.885,-27.074C714.687,-26.217 714.004,-25.555 713.14,-25.385C713.14,-25.385 662.166,-15.343 639.233,-15.343C620.87,-15.343 586.908,-26.606 577.576,-29.825L567.739,17.518C576.797,19.496 612.182,26.989 628.433,26.989C647.042,26.989 677.617,17.097 677.617,17.097C678.383,16.85 679.222,17.034 679.814,17.578C680.407,18.122 680.661,18.942 680.48,19.726L665.52,84.526C665.339,85.307 664.754,85.932 663.986,86.163C663.986,86.163 630.282,96.257 613.433,96.257C596.926,96.257 561.002,88.678 551.822,86.68L528.31,188.526C528.076,189.539 527.173,190.257 526.133,190.257L442.533,190.257C441.852,190.257 441.208,189.947 440.784,189.414C440.36,188.881 440.203,188.184 440.356,187.521L506.384,-98.479C506.581,-99.332 507.257,-99.991 508.114,-100.166Z"/>
        </g>
        <g transform="matrix(1.24334,0,0,1.24334,-520.218,294.599)">
            <path d="M818.651,167.182C809.421,176.102 799.657,183.049 789.368,188.034C777.516,193.776 764.347,196.657 749.855,196.657C737.204,196.657 726.669,194.631 718.239,190.643C709.656,186.583 703.067,180.9 698.448,173.62C693.87,166.406 691.119,157.81 690.234,147.82C689.365,138.011 690.303,127.11 693.071,115.121L723.453,-16.479C723.687,-17.493 724.59,-18.211 725.63,-18.211L801.23,-18.211C801.911,-18.211 802.554,-17.9 802.978,-17.367C803.402,-16.835 803.56,-16.138 803.407,-15.474L777.18,98.126C774.424,110.064 775.159,118.462 780.069,123.238C783.274,126.353 788.184,127.789 794.723,127.789C803.995,127.789 811.899,124.795 818.425,118.78C825.065,112.662 829.585,104.229 832.057,93.521L857.453,-16.479C857.687,-17.493 858.59,-18.211 859.63,-18.211L935.23,-18.211C935.911,-18.211 936.554,-17.9 936.978,-17.367C937.402,-16.835 937.56,-16.138 937.407,-15.474L890.31,188.526C890.076,189.539 889.173,190.257 888.133,190.257L816.133,190.257C815.452,190.257 814.808,189.947 814.384,189.414C813.96,188.881 813.803,188.184 813.956,187.521L818.651,167.182Z"/>
        </g>
        <g transform="matrix(1.24334,0,0,1.24334,-520.218,294.599)">
            <path d="M986.561,-100.211L1064.16,-100.211C1064.84,-100.211 1065.49,-99.9 1065.91,-99.367C1066.33,-98.835 1066.49,-98.138 1066.34,-97.474L1000.31,188.526C1000.08,189.539 999.173,190.257 998.133,190.257L920.533,190.257C919.852,190.257 919.208,189.947 918.784,189.414C918.36,188.881 918.203,188.184 918.356,187.521L984.384,-98.479C984.618,-99.493 985.521,-100.211 986.561,-100.211Z"/>
        </g>
        <g transform="matrix(1.24334,0,0,1.24334,-520.218,294.599)">
            <path d="M1096.56,-100.211L1174.16,-100.211C1174.84,-100.211 1175.49,-99.9 1175.91,-99.367C1176.33,-98.835 1176.49,-98.138 1176.34,-97.474L1110.31,188.526C1110.08,189.539 1109.17,190.257 1108.13,190.257L1030.53,190.257C1029.85,190.257 1029.21,189.947 1028.78,189.414C1028.36,188.881 1028.2,188.184 1028.36,187.521L1094.38,-98.479C1094.62,-99.493 1095.52,-100.211 1096.56,-100.211Z"/>
        </g>
        <g transform="matrix(1.24334,0,0,1.24334,-520.218,294.599)">
            <path d="M1258.48,104.136C1260.15,100.692 1261.88,97.248 1263.66,93.804C1266.1,89.005 1268.78,83.74 1271.71,78.008C1274.64,72.265 1277.52,66.722 1280.36,61.379L1321.65,-17.018C1322.04,-17.752 1322.8,-18.211 1323.63,-18.211L1399.63,-18.211C1400.43,-18.211 1401.16,-17.786 1401.56,-17.096C1401.96,-16.406 1401.96,-15.556 1401.57,-14.864L1284.47,189.136C1284.07,189.83 1283.33,190.257 1282.53,190.257L1194.13,190.257C1193,190.257 1192.04,189.403 1191.91,188.273L1169.01,-15.727C1168.94,-16.359 1169.14,-16.992 1169.56,-17.466C1169.99,-17.94 1170.59,-18.211 1171.23,-18.211L1249.63,-18.211C1250.81,-18.211 1251.78,-17.297 1251.86,-16.122L1256.96,62.278L1256.96,62.381C1257.07,67.693 1257.25,73.205 1257.53,78.916C1257.81,84.65 1258.06,89.918 1258.28,94.719L1258.28,94.807C1258.31,97.917 1258.37,101.026 1258.48,104.136Z"/>
        </g>
        <g transform="matrix(1.24334,0,0,1.24334,-520.218,294.599)">
            <path d="M1413.45,-16.479C1413.69,-17.491 1414.59,-18.211 1415.63,-18.211L1491.23,-18.211C1491.91,-18.211 1492.55,-17.9 1492.98,-17.367C1493.4,-16.835 1493.56,-16.138 1493.41,-15.474L1446.31,188.526C1446.08,189.539 1445.17,190.257 1444.13,190.257L1368.53,190.257C1367.85,190.257 1367.21,189.947 1366.78,189.414C1366.36,188.881 1366.2,188.184 1366.36,187.521L1413.45,-16.479Z"/>
        </g>
        <g transform="matrix(1.24334,0,0,1.24334,-520.218,294.599)">
            <path d="M1419.18,-41.279L1432.38,-98.479C1432.56,-99.228 1433.1,-99.835 1433.83,-100.087C1433.83,-100.087 1451.25,-106.064 1459.95,-105.2C1464.43,-104.756 1468.92,-102.379 1473.4,-99.938C1477.33,-97.796 1481.23,-95.589 1485.15,-95.2C1493.25,-94.398 1509.43,-100.088 1509.43,-100.088C1510.2,-100.354 1511.05,-100.182 1511.65,-99.639C1512.26,-99.095 1512.52,-98.266 1512.34,-97.474L1499.13,-40.274C1498.96,-39.525 1498.41,-38.918 1497.69,-38.666C1497.69,-38.666 1480.23,-32.689 1471.51,-33.553C1467.04,-33.997 1462.53,-36.374 1458.06,-38.815C1454.13,-40.957 1450.24,-43.164 1446.31,-43.553C1438.23,-44.356 1422.09,-38.666 1422.09,-38.666C1421.32,-38.399 1420.47,-38.571 1419.86,-39.114C1419.26,-39.658 1419,-40.487 1419.18,-41.279Z"/>
        </g>
        <g transform="matrix(1.24334,0,0,1.24334,-520.218,294.599)">
            <path d="M1578.65,196.657C1561.24,196.657 1546.18,193.847 1533.45,188.27C1520.62,182.644 1510.34,174.88 1502.61,165.001C1494.87,155.12 1489.81,143.391 1487.46,129.805C1485.13,116.333 1485.77,101.705 1489.41,85.921C1493.04,70.204 1499.11,55.639 1507.63,42.226C1516.14,28.82 1526.48,17.175 1538.65,7.289C1550.82,-2.599 1564.52,-10.322 1579.76,-15.876C1594.99,-21.429 1611.28,-24.211 1628.62,-24.211C1646.03,-24.211 1661.09,-21.401 1673.82,-15.823C1686.67,-10.192 1696.87,-2.35 1704.44,7.677C1712.01,17.691 1716.91,29.483 1719.12,43.064C1721.32,56.528 1720.61,71.149 1716.97,86.926C1713.34,102.638 1707.33,117.198 1698.96,130.607C1690.58,144.02 1680.38,155.603 1668.38,165.357C1656.37,175.111 1642.75,182.768 1627.51,188.322C1612.28,193.876 1595.99,196.657 1578.65,196.657ZM1589.49,141.789C1600.55,141.789 1609.96,136.769 1617.78,126.841C1625.9,116.532 1631.9,102.884 1635.81,85.921C1639.7,69.082 1640.05,55.549 1636.72,45.316C1633.61,35.78 1626.71,31.057 1616.09,31.057C1605.05,31.057 1595.77,36.066 1588.22,45.978C1580.35,56.294 1574.49,69.951 1570.57,86.926C1566.67,103.785 1566.2,117.335 1569.28,127.58C1572.14,137.088 1578.9,141.789 1589.49,141.789Z"/>
        </g>
    </g>
</svg>
