<?xml version="1.0" encoding="UTF-8" standalone="no"?>
<!DOCTYPE svg PUBLIC "-//W3C//DTD SVG 1.1//EN" "http://www.w3.org/Graphics/SVG/1.1/DTD/svg11.dtd">
<svg width="100%" height="100%" viewBox="0 0 700 700" version="1.1" xmlns="http://www.w3.org/2000/svg" xmlns:xlink="http://www.w3.org/1999/xlink" xml:space="preserve" xmlns:serif="http://www.serif.com/" style="fill-rule:evenodd;clip-rule:evenodd;stroke-linejoin:round;stroke-miterlimit:2;">
    <g transform="matrix(8.03742,0,0,10.1787,-97.1151,-258.292)">
        <rect x="12.083" y="25.376" width="87.093" height="68.771" style="fill:#332b98;"/>
    </g>
    <g transform="matrix(1.67405,0,0,1.67405,-630.572,282.999)">
        <path d="M508.114,-100.166C508.114,-100.166 557.406,-110.211 582.033,-110.211C594.549,-110.211 607.066,-105.158 619.569,-100.045C631.521,-95.158 643.458,-90.211 655.433,-90.211C679.787,-90.211 728.514,-100.166 728.514,-100.166C729.259,-100.318 730.03,-100.08 730.561,-99.536C731.091,-98.992 731.309,-98.215 731.138,-97.474L714.885,-27.074C714.687,-26.217 714.004,-25.555 713.14,-25.385C713.14,-25.385 662.166,-15.343 639.233,-15.343C620.87,-15.343 586.908,-26.606 577.576,-29.825L567.739,17.518C576.797,19.496 612.182,26.989 628.433,26.989C647.042,26.989 677.617,17.097 677.617,17.097C678.383,16.85 679.222,17.034 679.814,17.578C680.407,18.122 680.661,18.942 680.48,19.726L665.52,84.526C665.339,85.307 664.754,85.932 663.986,86.163C663.986,86.163 630.282,96.257 613.433,96.257C596.926,96.257 561.002,88.678 551.822,86.68L528.31,188.526C528.076,189.539 527.173,190.257 526.133,190.257L442.533,190.257C441.852,190.257 441.208,189.947 440.784,189.414C440.36,188.881 440.203,188.184 440.356,187.521L506.384,-98.479C506.581,-99.332 507.257,-99.991 508.114,-100.166Z" style="fill:#f2f996;"/>
    </g>
</svg>
